<?xml version="1.0" encoding="UTF-8" standalone="no"?>
<svg
   xmlns:dc="http://purl.org/dc/elements/1.1/"
   xmlns:cc="http://creativecommons.org/ns#"
   xmlns:rdf="http://www.w3.org/1999/02/22-rdf-syntax-ns#"
   xmlns:svg="http://www.w3.org/2000/svg"
   xmlns="http://www.w3.org/2000/svg"
   xmlns:sodipodi="http://sodipodi.sourceforge.net/DTD/sodipodi-0.dtd"
   xmlns:inkscape="http://www.inkscape.org/namespaces/inkscape"
   width="967.55908"
   height="967.55908"
   viewBox="0 0 256 256"
   version="1.1"
   id="svg859"
   sodipodi:docname="scale-path.svg"
   inkscape:version="1.0 (6e3e5246a0, 2020-05-07)">
  <defs
     id="defs853" />
  <sodipodi:namedview
     id="base"
     pagecolor="#ffffff"
     bordercolor="#666666"
     borderopacity="1.0"
     inkscape:pageopacity="0.0"
     inkscape:pageshadow="2"
     inkscape:zoom="0.55038984"
     inkscape:cx="762.47492"
     inkscape:cy="532.00053"
     inkscape:document-units="mm"
     inkscape:current-layer="layer1"
     inkscape:document-rotation="0"
     showgrid="false"
     units="px"
     inkscape:window-width="1439"
     inkscape:window-height="1023"
     inkscape:window-x="167"
     inkscape:window-y="27"
     inkscape:window-maximized="0" />
  <metadata
     id="metadata856">
    <rdf:RDF>
      <cc:Work
         rdf:about="">
        <dc:format>image/svg+xml</dc:format>
        <dc:type
           rdf:resource="http://purl.org/dc/dcmitype/StillImage" />
        <dc:title></dc:title>
      </cc:Work>
    </rdf:RDF>
  </metadata>
  <g
     inkscape:label="Layer 1"
     inkscape:groupmode="layer"
     id="layer1">
    <path
       transform="scale(0.26458333)"
       d="M 206.83984 188.32617 L 206.83984 231.44531 L 176.60352 231.44531 L 176.60352 291.91602 L 237.07617 291.91602 L 237.07617 248.79883 L 267.3125 248.79883 L 267.3125 188.32617 L 206.83984 188.32617 z M 327.78516 188.32617 L 327.78516 248.79883 L 388.25781 248.79883 L 388.25781 188.32617 L 327.78516 188.32617 z M 448.73047 188.32617 L 448.73047 248.79883 L 509.20312 248.79883 L 509.20312 188.32617 L 448.73047 188.32617 z M 569.67578 188.32617 L 569.67578 248.79883 L 630.14844 248.79883 L 630.14844 188.32617 L 569.67578 188.32617 z M 690.61914 188.32617 L 690.61914 248.79883 L 708.95703 248.79883 L 708.95703 230.46289 L 769.42969 230.46289 L 769.42969 188.32617 L 690.61914 188.32617 z M 708.95703 290.93555 L 708.95703 351.4082 L 769.42969 351.4082 L 769.42969 290.93555 L 708.95703 290.93555 z M 176.60352 352.38867 L 176.60352 412.86133 L 237.07617 412.86133 L 237.07617 352.38867 L 176.60352 352.38867 z M 708.95703 411.88086 L 708.95703 472.35156 L 769.42969 472.35156 L 769.42969 411.88086 L 708.95703 411.88086 z M 206.83984 429.85547 L 176.60352 460.0918 L 176.60352 473.33398 L 176.60352 533.80664 L 176.60352 594.2793 L 176.60352 654.75195 L 176.60352 715.22461 L 176.60352 750.92188 L 176.60352 781.1582 L 206.83984 781.1582 L 231.62109 781.1582 L 292.09375 781.1582 L 352.56641 781.1582 L 413.03906 781.1582 L 473.51172 781.1582 L 497.66406 781.1582 L 527.90039 750.92188 L 527.90039 460.0918 L 497.66406 429.85547 L 206.83984 429.85547 z M 237.07617 490.32812 L 467.42773 490.32812 L 467.42773 720.68555 L 413.03906 720.68555 L 352.56641 720.68555 L 292.09375 720.68555 L 237.07617 720.68555 L 237.07617 715.22461 L 237.07617 654.75195 L 237.07617 594.2793 L 237.07617 533.80664 L 237.07617 490.32812 z M 708.95703 532.82422 L 708.95703 593.29688 L 769.42969 593.29688 L 769.42969 532.82422 L 708.95703 532.82422 z M 708.95703 653.76953 L 708.95703 714.24219 L 769.42969 714.24219 L 769.42969 653.76953 L 708.95703 653.76953 z M 533.98438 720.68555 L 533.98438 781.1582 L 594.45703 781.1582 L 594.45703 720.68555 L 533.98438 720.68555 z M 654.92773 720.68555 L 654.92773 781.1582 L 715.40039 781.1582 L 715.40039 720.68555 L 654.92773 720.68555 z "
       style="color:#000000;font-style:normal;font-variant:normal;font-weight:normal;font-stretch:normal;font-size:medium;line-height:normal;font-family:sans-serif;font-variant-ligatures:normal;font-variant-position:normal;font-variant-caps:normal;font-variant-numeric:normal;font-variant-alternates:normal;font-variant-east-asian:normal;font-feature-settings:normal;font-variation-settings:normal;text-indent:0;text-align:start;text-decoration:none;text-decoration-line:none;text-decoration-style:solid;text-decoration-color:#000000;letter-spacing:normal;word-spacing:normal;text-transform:none;writing-mode:lr-tb;direction:ltr;text-orientation:mixed;dominant-baseline:auto;baseline-shift:baseline;text-anchor:start;white-space:normal;shape-padding:0;shape-margin:0;inline-size:0;clip-rule:nonzero;display:inline;overflow:visible;visibility:visible;opacity:1;isolation:auto;mix-blend-mode:normal;color-interpolation:sRGB;color-interpolation-filters:linearRGB;solid-color:#000000;solid-opacity:1;vector-effect:none;fill:#000000;fill-opacity:1;fill-rule:nonzero;stroke:none;stroke-width:60.4724;stroke-linecap:butt;stroke-linejoin:miter;stroke-miterlimit:4;stroke-dasharray:60.4724, 60.4724;stroke-dashoffset:0;stroke-opacity:1;color-rendering:auto;image-rendering:auto;shape-rendering:auto;text-rendering:auto;enable-background:accumulate;stop-color:#000000;stop-opacity:1"
       id="path2082" />
  </g>
</svg>
