<?xml version="1.0" encoding="UTF-8" standalone="no"?>
<!-- Created with Inkscape (http://www.inkscape.org/) -->

<svg
   xmlns:dc="http://purl.org/dc/elements/1.1/"
   xmlns:cc="http://creativecommons.org/ns#"
   xmlns:rdf="http://www.w3.org/1999/02/22-rdf-syntax-ns#"
   xmlns:svg="http://www.w3.org/2000/svg"
   xmlns="http://www.w3.org/2000/svg"
   xmlns:sodipodi="http://sodipodi.sourceforge.net/DTD/sodipodi-0.dtd"
   xmlns:inkscape="http://www.inkscape.org/namespaces/inkscape"
   width="195.36647mm"
   height="72.386963mm"
   viewBox="0 0 195.36647 72.386963"
   version="1.1"
   id="svg10559"
   inkscape:version="0.92.4 (f8dce91, 2019-08-02)"
   sodipodi:docname="ebrains-logo-dark.svg">
  <defs
     id="defs10553" />
  <sodipodi:namedview
     id="base"
     pagecolor="#ffffff"
     bordercolor="#666666"
     borderopacity="1.0"
     inkscape:pageopacity="0.0"
     inkscape:pageshadow="2"
     inkscape:zoom="0.35"
     inkscape:cx="352.05365"
     inkscape:cy="-37.491452"
     inkscape:document-units="mm"
     inkscape:current-layer="layer1"
     showgrid="false"
     inkscape:window-width="1853"
     inkscape:window-height="1025"
     inkscape:window-x="67"
     inkscape:window-y="27"
     inkscape:window-maximized="1" />
  <metadata
     id="metadata10556">
    <rdf:RDF>
      <cc:Work
         rdf:about="">
        <dc:format>image/svg+xml</dc:format>
        <dc:type
           rdf:resource="http://purl.org/dc/dcmitype/StillImage" />
        <dc:title></dc:title>
      </cc:Work>
    </rdf:RDF>
  </metadata>
  <g
     inkscape:label="Layer 1"
     inkscape:groupmode="layer"
     id="layer1"
     transform="translate(-12.685806,-66.526755)">
    <path
       inkscape:connector-curvature="0"
       id="path10007"
       d="m 103.12986,93.471535 h 11.58378 V 95.8707 h -8.79602 v 5.63066 h 8.19107 v 2.38952 h -8.19107 v 5.65685 h 8.90351 v 2.40054 h -11.69127 z m 0,0"
       style="fill:#ffffff;fill-opacity:1;fill-rule:nonzero;stroke:none;stroke-width:0.35277775" />
    <path
       inkscape:connector-curvature="0"
       id="path10009"
       d="m 125.257,109.55737 c 2.67892,0 3.73451,-1.16444 3.73451,-2.71611 0,-1.75976 -1.39873,-3.20256 -3.63527,-3.20256 h -4.1231 v 5.91867 z m -0.28938,-8.09321 c 1.87688,0 3.339,-1.13689 3.339,-2.922819 0,-1.53376 -1.05558,-2.696824 -3.26594,-2.696824 h -3.80754 v 5.619643 z m -6.52227,-7.992625 h 6.76618 c 3.93294,0 5.82774,2.119424 5.82774,4.853446 0,2.309599 -1.41527,3.464389 -3.11164,3.897099 v 0.18052 c 1.83145,0.0992 3.83371,1.71428 3.83371,4.57371 0,2.83324 -1.9389,4.97196 -6.23422,4.97196 h -7.08177 z m 0,0"
       style="fill:#ffffff;fill-opacity:1;fill-rule:nonzero;stroke:none;stroke-width:0.35277775" />
    <path
       inkscape:connector-curvature="0"
       id="path10011"
       d="m 141.3842,102.55694 c 2.71473,0 3.85159,-1.20992 3.85159,-3.293512 0,-2.093237 -1.13686,-3.402372 -3.88743,-3.402372 h -3.5016 v 6.695884 z m -6.3252,-9.085405 h 6.58703 c 4.28431,0 6.39548,2.389521 6.39548,5.791893 0,2.480472 -1.12724,4.367002 -3.39136,5.204852 l 4.09553,7.47999 h -3.175 l -3.7538,-6.99216 h -3.97012 v 6.99216 H 135.059 Z m 0,0"
       style="fill:#ffffff;fill-opacity:1;fill-rule:nonzero;stroke:none;stroke-width:0.35277775" />
    <path
       inkscape:connector-curvature="0"
       id="path10013"
       d="m 161.10254,104.71219 -2.72578,-7.885129 h -0.1433 l -2.72439,7.885129 z m -11.06153,7.23608 6.64905,-18.476735 h 3.22048 l 6.64904,18.476735 h -2.95867 l -1.6867,-4.89066 h -7.21815 l -1.69499,4.89066 z m 0,0"
       style="fill:#ffffff;fill-opacity:1;fill-rule:nonzero;stroke:none;stroke-width:0.35277775" />
    <path
       inkscape:connector-curvature="0"
       id="path10015"
       d="M 172.00559,111.94827 H 169.2178 V 93.471535 h 2.78779 z m 0,0"
       style="fill:#ffffff;fill-opacity:1;fill-rule:nonzero;stroke:none;stroke-width:0.35277775" />
    <path
       inkscape:connector-curvature="0"
       id="path10017"
       d="m 190.97703,111.94827 h -2.56177 l -9.39133,-13.551629 h -0.17226 v 13.551629 h -2.78776 V 93.471535 h 2.58107 l 9.39958,13.568165 h 0.17227 V 93.471535 h 2.7602 z m 0,0"
       style="fill:#ffffff;fill-opacity:1;fill-rule:nonzero;stroke:none;stroke-width:0.35277775" />
    <path
       inkscape:connector-curvature="0"
       id="path10019"
       d="m 201.28477,95.628165 c -2.27242,0 -3.70695,1.163063 -3.70695,2.732646 -0.01,1.768029 1.91272,2.444639 3.35555,2.815329 l 1.80382,0.46854 c 2.34682,0.5774 5.31509,1.86724 5.31509,5.19658 0,3.1309 -2.49975,5.41294 -6.83919,5.41294 -4.14101,0 -6.73033,-2.06568 -6.91085,-5.41294 h 2.79742 c 0.1626,2.01194 1.94854,2.96829 4.0955,2.96829 2.373,0 4.09554,-1.19062 4.09554,-2.99447 0,-1.64262 -1.5241,-2.29168 -3.50022,-2.81533 l -2.18282,-0.59532 c -2.96827,-0.8034 -4.80934,-2.30959 -4.80934,-4.881009 0,-3.184642 2.84152,-5.304068 6.54981,-5.304068 3.7538,0 6.3693,2.146985 6.45061,5.105628 h -2.68855 c -0.19844,-1.704629 -1.70462,-2.696816 -3.82542,-2.696816"
       style="fill:#ffffff;fill-opacity:1;fill-rule:nonzero;stroke:none;stroke-width:0.35277775" />
    <path
       inkscape:connector-curvature="0"
       id="path10021"
       d="m 48.527842,66.526755 -17.89243,4.890657 -13.051401,13.183693 -4.7129,17.940675 4.89204,17.89383 13.025225,12.96045 17.918608,5.51766 18.074357,-5.60724 12.960455,-13.02659 4.801093,-18.09778 -4.89204,-17.89382 -13.180942,-13.050022 z m 0,0"
       style="fill:#ffffff;fill-opacity:1;fill-rule:nonzero;stroke:none;stroke-width:0.35277775" />
    <path
       inkscape:connector-curvature="0"
       id="path10023"
       d="m 78.910827,121.1136 c -2.086326,-0.61874 -4.156146,-1.29536 -6.198412,-2.06568 -5.972421,-2.25447 -10.869964,-6.29901 -16.86306,-8.42945 -5.494229,-1.95269 -11.269591,-3.16674 -17.015987,-4.10794 -1.296741,-0.21359 -2.648585,-0.50849 -3.971502,-0.49885 -3.679366,0.0262 -6.439605,2.30684 -8.370217,5.22277 -2.010551,3.03719 -4.95681,7.24021 -8.554861,9.37341"
       style="fill:none;stroke:#191919;stroke-width:0.7055555;stroke-linecap:round;stroke-linejoin:round;stroke-miterlimit:10;stroke-opacity:1" />
    <path
       inkscape:connector-curvature="0"
       id="path10025"
       d="m 79.850662,119.86923 c -2.349569,-0.66697 -4.681183,-1.39733 -6.978401,-2.24482 -5.842884,-2.15663 -10.772106,-5.92143 -16.514411,-8.33575 -4.743204,-1.9954 -9.64212,-3.87505 -14.592017,-5.30407 -5.294418,-1.52963 -9.617357,0.84611 -13.376628,4.28983 -2.326146,2.12907 -4.734947,4.18648 -7.28292,6.04683 -1.223716,0.89435 -2.691307,2.02434 -4.249874,2.84979"
       style="fill:none;stroke:#191919;stroke-width:0.35277775;stroke-linecap:round;stroke-linejoin:round;stroke-miterlimit:10;stroke-opacity:1" />
    <path
       inkscape:connector-curvature="0"
       id="path10027"
       d="m 80.221362,118.4719 c -2.521831,-0.68902 -5.022956,-1.44694 -7.484145,-2.34128 -5.6031,-2.03674 -10.475843,-5.84977 -15.653139,-8.77122 -4.128592,-2.33026 -9.143259,-6.16396 -14.013248,-6.68899 -5.671998,-0.61185 -9.700014,2.88147 -14.195179,5.67062 -3.001363,1.86173 -6.031689,3.68763 -9.143294,5.36333 -1.102431,0.59393 -2.429476,1.42902 -3.795116,2.0519"
       style="fill:none;stroke:#191919;stroke-width:0.35277775;stroke-linecap:round;stroke-linejoin:round;stroke-miterlimit:10;stroke-opacity:1" />
    <path
       inkscape:connector-curvature="0"
       id="path10029"
       d="m 80.565849,117.17104 c -2.702314,-0.68076 -5.37986,-1.44695 -7.995356,-2.42811 -5.862177,-2.19797 -10.788685,-7.24986 -15.571822,-11.14281 -4.824519,-3.924662 -9.666957,-8.320597 -16.404167,-5.323369 -4.047313,1.801099 -7.985759,3.890209 -11.993068,5.782249 -3.401024,1.60542 -6.811644,3.19705 -10.265021,4.68947 -0.972894,0.4203 -2.152504,1.07073 -3.343134,1.55305"
       style="fill:none;stroke:#191919;stroke-width:0.7055555;stroke-linecap:round;stroke-linejoin:round;stroke-miterlimit:10;stroke-opacity:1" />
    <path
       inkscape:connector-curvature="0"
       id="path10031"
       d="m 80.915874,115.85363 c -3.04546,-0.70418 -6.055077,-1.52824 -8.940694,-2.71887 C 64.879656,110.20643 61.466248,102.81188 57.046896,97.095781 53.37716,92.349813 47.320707,93.997948 42.671203,95.8018 c -5.590717,2.167651 -11.184186,4.32566 -16.790036,6.45335 -3.118485,1.18511 -6.238381,2.36609 -9.373406,3.50435 -0.71794,0.26045 -1.59576,0.69453 -2.47495,1.0294"
       style="fill:none;stroke:#191919;stroke-width:0.35277775;stroke-linecap:round;stroke-linejoin:round;stroke-miterlimit:10;stroke-opacity:1" />
    <path
       inkscape:connector-curvature="0"
       id="path10033"
       d="m 81.458836,113.80449 c -3.70279,-0.72347 -7.365613,-1.66605 -10.621928,-3.43683 -5.483225,-2.9807 -7.612274,-9.52638 -10.922317,-14.495581 -2.26,-3.394109 -6.323825,-5.470813 -10.357342,-4.362869 -1.663277,0.456131 -3.297661,1.054199 -4.940266,1.577851 -6.759293,2.160765 -13.519926,4.32015 -20.280594,6.480917 -3.763434,1.201652 -7.528208,2.404672 -11.293018,3.607702"
       style="fill:none;stroke:#191919;stroke-width:0.7055555;stroke-linecap:round;stroke-linejoin:round;stroke-miterlimit:10;stroke-opacity:1" />
    <path
       inkscape:connector-curvature="0"
       id="path10035"
       d="M 82.051397,111.57207 C 77.844239,110.29324 73.75699,108.78154 70.149275,106.06818 65.463927,102.54316 61.889301,97.372761 57.986696,93.047099 53.920119,88.539537 48.824141,88.794476 43.64134,90.57352 c -6.104713,2.095997 -12.19842,4.227822 -18.265915,6.432681 -3.505729,1.27607 -7.011458,2.563147 -10.468964,3.964619 -0.45886,0.18603 -1.1038,0.38585 -1.78594,0.62149"
       style="fill:none;stroke:#191919;stroke-width:0.35277775;stroke-linecap:round;stroke-linejoin:round;stroke-miterlimit:10;stroke-opacity:1" />
    <path
       inkscape:connector-curvature="0"
       id="path10037"
       d="M 83.126275,107.52339 C 79.26498,106.05027 75.435438,104.51651 71.858023,102.41087 66.197069,99.077391 61.616462,94.350725 56.645894,90.110499 51.950916,86.104545 46.784627,86.111435 41.235291,88.177115 c -5.432249,2.022958 -10.838286,4.118955 -16.189219,6.349999 -3.180504,1.325671 -6.354128,2.685797 -9.440931,4.219547 -0.58702,0.29077 -1.28157,0.598067 -1.98438,0.941197"
       style="fill:none;stroke:#191919;stroke-width:0.7055555;stroke-linecap:round;stroke-linejoin:round;stroke-miterlimit:10;stroke-opacity:1" />
    <path
       inkscape:connector-curvature="0"
       id="path10039"
       d="M 84.33341,102.97449 C 75.32657,98.475191 66.558101,93.653436 57.855781,88.564341 52.554483,85.466512 47.418532,82.736618 41.042356,84.969042 c -4.158932,1.455208 -8.244804,3.210828 -12.2797,4.970582 -3.520898,1.536513 -7.023876,3.147437 -10.390399,5.000899 -1.306406,0.719336 -2.807086,1.496552 -4.145136,2.437748"
       style="fill:none;stroke:#191919;stroke-width:0.7055555;stroke-linecap:round;stroke-linejoin:round;stroke-miterlimit:10;stroke-opacity:1" />
    <path
       inkscape:connector-curvature="0"
       id="path10041"
       d="M 83.820788,99.539038 C 79.672899,96.997931 75.522256,94.500931 71.130419,92.371861 66.785468,90.263464 62.283424,88.444453 57.855781,86.519334 53.138752,84.470189 48.645,81.923575 43.349171,82.090319 38.46542,82.24328 33.957873,84.7017 29.650104,86.796318 24.866931,89.122446 18.971697,91.764145 14.705271,95.557886"
       style="fill:none;stroke:#191919;stroke-width:0.35277775;stroke-linecap:round;stroke-linejoin:round;stroke-miterlimit:10;stroke-opacity:1" />
    <path
       inkscape:connector-curvature="0"
       id="path10043"
       d="M 82.697684,95.432484 C 78.993518,92.600616 75.321067,89.913441 70.973327,87.989702 66.943969,86.207895 62.539752,85.164721 58.328467,83.90795 54.427238,82.742132 50.539803,81.428861 46.598606,80.406355 40.963794,78.941502 35.596349,80.701256 30.631285,83.247871 25.309279,85.977764 19.623489,89.236824 15.205511,93.537681"
       style="fill:none;stroke:#191919;stroke-width:0.7055555;stroke-linecap:round;stroke-linejoin:round;stroke-miterlimit:10;stroke-opacity:1" />
  </g>
</svg>
