<?xml version="1.0" encoding="UTF-8" standalone="no"?>
<!-- Created with Inkscape (http://www.inkscape.org/) -->

<svg
   xmlns:dc="http://purl.org/dc/elements/1.1/"
   xmlns:cc="http://creativecommons.org/ns#"
   xmlns:rdf="http://www.w3.org/1999/02/22-rdf-syntax-ns#"
   xmlns:svg="http://www.w3.org/2000/svg"
   xmlns="http://www.w3.org/2000/svg"
   xmlns:sodipodi="http://sodipodi.sourceforge.net/DTD/sodipodi-0.dtd"
   xmlns:inkscape="http://www.inkscape.org/namespaces/inkscape"
   width="195.36511mm"
   height="72.386971mm"
   viewBox="0 0 195.36511 72.386971"
   version="1.1"
   id="svg10463"
   inkscape:version="0.92.4 (f8dce91, 2019-08-02)"
   sodipodi:docname="ebrains-logo-light.svg">
  <defs
     id="defs10457" />
  <sodipodi:namedview
     id="base"
     pagecolor="#ffffff"
     bordercolor="#666666"
     borderopacity="1.0"
     inkscape:pageopacity="0.0"
     inkscape:pageshadow="2"
     inkscape:zoom="0.35"
     inkscape:cx="360.62249"
     inkscape:cy="-188.92002"
     inkscape:document-units="mm"
     inkscape:current-layer="layer1"
     showgrid="false"
     inkscape:window-width="1853"
     inkscape:window-height="1025"
     inkscape:window-x="67"
     inkscape:window-y="27"
     inkscape:window-maximized="1" />
  <metadata
     id="metadata10460">
    <rdf:RDF>
      <cc:Work
         rdf:about="">
        <dc:format>image/svg+xml</dc:format>
        <dc:type
           rdf:resource="http://purl.org/dc/dcmitype/StillImage" />
        <dc:title></dc:title>
      </cc:Work>
    </rdf:RDF>
  </metadata>
  <g
     inkscape:label="Layer 1"
     inkscape:groupmode="layer"
     id="layer1"
     transform="translate(-10.418633,-26.461277)">
    <path
       inkscape:connector-curvature="0"
       id="path9759"
       d="m 100.86129,53.406057 h 11.58381 v 2.399165 h -8.79602 v 5.630664 h 8.19242 v 2.389516 h -8.19242 v 5.656851 h 8.90489 v 2.400543 h -11.69268 z m 0,0"
       style="fill:#0f0f0f;fill-opacity:1;fill-rule:nonzero;stroke:none;stroke-width:0.35277775" />
    <path
       inkscape:connector-curvature="0"
       id="path9761"
       d="m 122.98846,69.491897 c 2.68027,0 3.73585,-1.164442 3.73585,-2.716109 0,-1.759761 -1.39869,-3.202566 -3.63665,-3.202566 h -4.12309 v 5.918675 z m -0.288,-8.093216 c 1.87688,0 3.33759,-1.136883 3.33759,-2.922821 0,-1.533755 -1.05558,-2.696821 -3.26594,-2.696821 h -3.80754 v 5.619642 z m -6.52364,-7.992624 h 6.76755 c 3.9329,0 5.82771,2.119424 5.82771,4.853451 0,2.309593 -1.41662,3.464388 -3.11298,3.897093 v 0.18052 c 1.83141,0.09922 3.83508,1.714283 3.83508,4.573713 0,2.833245 -1.94028,4.971962 -6.23425,4.971962 h -7.08311 z m 0,0"
       style="fill:#0f0f0f;fill-opacity:1;fill-rule:nonzero;stroke:none;stroke-width:0.35277775" />
    <path
       inkscape:connector-curvature="0"
       id="path9763"
       d="m 139.11563,62.491463 c 2.71614,0 3.853,-1.209916 3.853,-3.29351 0,-2.093243 -1.13686,-3.402375 -3.88881,-3.402375 h -3.50022 v 6.695885 z m -6.32379,-9.085406 h 6.58562 c 4.28572,0 6.39685,2.389521 6.39685,5.791896 0,2.480469 -1.12723,4.367001 -3.39273,5.204849 l 4.09691,7.479994 h -3.17638 l -3.75239,-6.992166 h -3.97012 v 6.992166 h -2.78776 z m 0,0"
       style="fill:#0f0f0f;fill-opacity:1;fill-rule:nonzero;stroke:none;stroke-width:0.35277775" />
    <path
       inkscape:connector-curvature="0"
       id="path9765"
       d="m 158.834,64.646716 -2.7244,-7.885133 h -0.14467 l -2.7244,7.885133 z m -11.06015,7.23608 6.64905,-18.476739 h 3.22048 l 6.64901,18.476739 h -2.95864 l -1.68811,-4.890659 h -7.21678 l -1.69637,4.890659 z m 0,0"
       style="fill:#0f0f0f;fill-opacity:1;fill-rule:nonzero;stroke:none;stroke-width:0.35277775" />
    <path
       inkscape:connector-curvature="0"
       id="path9767"
       d="m 169.7384,71.882796 h -2.78776 V 53.406057 h 2.78776 z m 0,0"
       style="fill:#0f0f0f;fill-opacity:1;fill-rule:nonzero;stroke:none;stroke-width:0.35277775" />
    <path
       inkscape:connector-curvature="0"
       id="path9769"
       d="m 188.70987,71.882796 h -2.56318 l -9.39133,-13.551628 h -0.17085 v 13.551628 h -2.78779 V 53.406057 h 2.57969 l 9.40099,13.568168 h 0.17085 V 53.406057 h 2.76162 z m 0,0"
       style="fill:#0f0f0f;fill-opacity:1;fill-rule:nonzero;stroke:none;stroke-width:0.35277775" />
    <path
       inkscape:connector-curvature="0"
       id="path9771"
       d="m 199.01758,55.562687 c -2.27376,0 -3.7083,1.163063 -3.7083,2.732648 -0.008,1.768025 1.91273,2.444642 3.35689,2.815333 l 1.80386,0.468535 c 2.34541,0.577398 5.31372,1.867242 5.31372,5.196585 0,3.130901 -2.49838,5.412933 -6.83782,5.412933 -4.14101,0 -6.73033,-2.065679 -6.91088,-5.412933 h 2.79604 c 0.16263,2.011934 1.94857,2.968291 4.09554,2.968291 2.37299,0 4.09554,-1.190625 4.09554,-2.994475 0,-1.642624 -1.52411,-2.291681 -3.49885,-2.815334 l -2.18419,-0.595312 c -2.96831,-0.8034 -4.80797,-2.309593 -4.80797,-4.881013 0,-3.184644 2.84152,-5.30407 6.54981,-5.30407 3.75239,0 6.3693,2.146985 6.45061,5.105633 h -2.68855 c -0.19844,-1.704634 -1.70603,-2.696821 -3.82545,-2.696821"
       style="fill:#0f0f0f;fill-opacity:1;fill-rule:nonzero;stroke:none;stroke-width:0.35277775" />
    <path
       inkscape:connector-curvature="0"
       id="path9773"
       d="m 46.260668,26.461277 -17.89384,4.890657 -13.0514,13.183693 -4.71149,17.94068 4.89204,17.893823 13.02519,12.960449 17.91864,5.517666 18.07436,-5.607238 12.95908,-13.026593 4.80243,-18.097779 -4.892,-17.893823 -13.18094,-13.050022 z m 0,0"
       style="fill:#191919;fill-opacity:1;fill-rule:nonzero;stroke:none;stroke-width:0.35277775" />
    <path
       inkscape:connector-curvature="0"
       id="path9775"
       d="m 76.643658,81.048127 c -2.08637,-0.618741 -4.15618,-1.295358 -6.19979,-2.065679 -5.97105,-2.254472 -10.86996,-6.299012 -16.86168,-8.429458 -5.49561,-1.952683 -11.2696,-3.166735 -17.01603,-4.107932 -1.29811,-0.213599 -2.64996,-0.508498 -3.9715,-0.498854 -3.67936,0.02617 -6.44094,2.30684 -8.37018,5.222768 -2.01196,3.037197 -4.95681,7.240211 -8.55486,9.373412"
       style="fill:none;stroke:#ffffff;stroke-width:0.7055555;stroke-linecap:round;stroke-linejoin:round;stroke-miterlimit:10;stroke-opacity:1" />
    <path
       inkscape:connector-curvature="0"
       id="path9777"
       d="m 77.582118,79.803757 c -2.3482,-0.666969 -4.67985,-1.397328 -6.97703,-2.244823 -5.84288,-2.156629 -10.77351,-5.921428 -16.51441,-8.335751 -4.7432,-1.9954 -9.6435,-3.875046 -14.59205,-5.304071 -5.2958,-1.529625 -9.61732,0.846116 -13.37797,4.289834 -2.32477,2.129067 -4.73357,4.186478 -7.28158,6.046829 -1.22506,0.89435 -2.69268,2.024338 -4.24984,2.849785"
       style="fill:none;stroke:#ffffff;stroke-width:0.35277775;stroke-linecap:round;stroke-linejoin:round;stroke-miterlimit:10;stroke-opacity:1" />
    <path
       inkscape:connector-curvature="0"
       id="path9779"
       d="m 77.954158,78.406429 c -2.5218,-0.68902 -5.02292,-1.446943 -7.48411,-2.341287 -5.60448,-2.036742 -10.47585,-5.849771 -15.65452,-8.771213 -4.12859,-2.330263 -9.14191,-6.163967 -14.01191,-6.688998 -5.67337,-0.611852 -9.70138,2.881476 -14.19651,5.670626 -3.0014,1.861729 -6.03169,3.687629 -9.14192,5.363325 -1.10243,0.593937 -2.42948,1.429025 -3.79512,2.051899"
       style="fill:none;stroke:#ffffff;stroke-width:0.35277775;stroke-linecap:round;stroke-linejoin:round;stroke-miterlimit:10;stroke-opacity:1" />
    <path
       inkscape:connector-curvature="0"
       id="path9781"
       d="m 78.298678,77.10556 c -2.70235,-0.680752 -5.38124,-1.446943 -7.99677,-2.428105 -5.86076,-2.19797 -10.78727,-7.249858 -15.57182,-11.142814 -4.82314,-3.924655 -9.66692,-8.320596 -16.40279,-5.323364 -4.04865,1.801095 -7.98572,3.890203 -11.99307,5.782249 -3.40236,1.605415 -6.81302,3.197049 -10.26498,4.689466 -0.97289,0.420298 -2.15251,1.070734 -3.34451,1.553048"
       style="fill:none;stroke:#ffffff;stroke-width:0.7055555;stroke-linecap:round;stroke-linejoin:round;stroke-miterlimit:10;stroke-opacity:1" />
    <path
       inkscape:connector-curvature="0"
       id="path9783"
       d="m 78.648698,75.788155 c -3.04546,-0.704176 -6.05648,-1.528244 -8.94072,-2.718869 -7.09687,-2.928332 -10.5089,-10.322887 -14.92967,-16.038987 -3.6697,-4.745964 -9.72481,-3.097829 -14.37569,-1.293977 -5.5893,2.167652 -11.18415,4.325662 -16.78862,6.453352 -3.11852,1.185111 -6.23838,2.366092 -9.37479,3.50435 -0.71797,0.260448 -1.59441,0.694533 -2.47361,1.029397"
       style="fill:none;stroke:#ffffff;stroke-width:0.35277775;stroke-linecap:round;stroke-linejoin:round;stroke-miterlimit:10;stroke-opacity:1" />
    <path
       inkscape:connector-curvature="0"
       id="path9785"
       d="m 79.191668,73.739012 c -3.70279,-0.723468 -7.36565,-1.666049 -10.62193,-3.436826 -5.4846,-2.980698 -7.61369,-9.526382 -10.92235,-14.495585 -2.26134,-3.394109 -6.32379,-5.470813 -10.35869,-4.362869 -1.66193,0.456131 -3.29766,1.054199 -4.93889,1.577851 -6.76067,2.160765 -13.52133,4.320151 -20.28059,6.480916 -3.76481,1.20165 -7.52824,2.404674 -11.29302,3.607702"
       style="fill:none;stroke:#ffffff;stroke-width:0.7055555;stroke-linecap:round;stroke-linejoin:round;stroke-miterlimit:10;stroke-opacity:1" />
    <path
       inkscape:connector-curvature="0"
       id="path9787"
       d="m 79.784188,71.50659 c -4.20712,-1.278821 -8.29578,-2.790526 -11.90346,-5.503884 -4.68397,-3.525023 -8.25997,-8.695423 -12.16258,-13.021085 -4.06661,-4.507562 -9.16259,-4.252623 -14.34401,-2.473579 -6.10472,2.095997 -12.19976,4.227822 -18.26588,6.432685 -3.50573,1.276064 -7.01146,2.563148 -10.47034,3.964614 -0.45752,0.186034 -1.10243,0.38585 -1.78456,0.621496"
       style="fill:none;stroke:#ffffff;stroke-width:0.35277775;stroke-linecap:round;stroke-linejoin:round;stroke-miterlimit:10;stroke-opacity:1" />
    <path
       inkscape:connector-curvature="0"
       id="path9789"
       d="m 80.859068,67.457915 c -3.86126,-1.473124 -7.69221,-3.006882 -11.26959,-5.112523 -5.65961,-3.333475 -10.24019,-8.060145 -15.21217,-12.300371 -4.69498,-4.005954 -9.85985,-3.999064 -15.40922,-1.933384 -5.43222,2.022958 -10.83963,4.118955 -16.18919,6.349999 -3.1805,1.325671 -6.35412,2.685796 -9.44231,4.219552 -0.58705,0.290766 -1.28019,0.598069 -1.983,0.941199"
       style="fill:none;stroke:#ffffff;stroke-width:0.7055555;stroke-linecap:round;stroke-linejoin:round;stroke-miterlimit:10;stroke-opacity:1" />
    <path
       inkscape:connector-curvature="0"
       id="path9791"
       d="m 82.064858,62.90901 c -9.00687,-4.499296 -17.77393,-9.321052 -26.47762,-14.410147 -5.3013,-3.097829 -10.43725,-5.827723 -16.81209,-3.595299 -4.1589,1.455208 -8.24477,3.210828 -12.27966,4.970582 -3.52228,1.536513 -7.02388,3.147437 -10.39044,5.000899 -1.30774,0.719336 -2.80843,1.496552 -4.14514,2.437752"
       style="fill:none;stroke:#ffffff;stroke-width:0.7055555;stroke-linecap:round;stroke-linejoin:round;stroke-miterlimit:10;stroke-opacity:1" />
    <path
       inkscape:connector-curvature="0"
       id="path9793"
       d="m 81.552238,59.473562 c -4.14792,-2.541106 -8.29719,-5.038109 -12.68899,-7.167179 -4.34495,-2.108397 -8.847,-3.927408 -13.27464,-5.852527 -4.7184,-2.049145 -9.21081,-4.595759 -14.50661,-4.429015 -4.88513,0.152961 -9.39133,2.611381 -13.69907,4.705999 -4.78454,2.326128 -10.67844,4.967827 -14.94483,8.761568"
       style="fill:none;stroke:#ffffff;stroke-width:0.35277775;stroke-linecap:round;stroke-linejoin:round;stroke-miterlimit:10;stroke-opacity:1" />
    <path
       inkscape:connector-curvature="0"
       id="path9795"
       d="m 80.430508,55.367006 c -3.70416,-2.831868 -7.37802,-5.519043 -11.72435,-7.442782 -4.03077,-1.781807 -8.43361,-2.824981 -12.64627,-4.081752 -3.89982,-1.165818 -7.78867,-2.479089 -11.72849,-3.501595 -5.63478,-1.464853 -11.00226,0.294901 -15.9687,2.841516 -5.32197,2.729893 -11.00638,5.988953 -15.42573,10.28981"
       style="fill:none;stroke:#ffffff;stroke-width:0.7055555;stroke-linecap:round;stroke-linejoin:round;stroke-miterlimit:10;stroke-opacity:1" />
  </g>
</svg>
