<?xml version="1.0" encoding="UTF-8" standalone="no"?>
<svg
   xmlns:dc="http://purl.org/dc/elements/1.1/"
   xmlns:cc="http://creativecommons.org/ns#"
   xmlns:rdf="http://www.w3.org/1999/02/22-rdf-syntax-ns#"
   xmlns:svg="http://www.w3.org/2000/svg"
   xmlns="http://www.w3.org/2000/svg"
   xmlns:sodipodi="http://sodipodi.sourceforge.net/DTD/sodipodi-0.dtd"
   xmlns:inkscape="http://www.inkscape.org/namespaces/inkscape"
   inkscape:version="1.0 (6e3e5246a0, 2020-05-07)"
   sodipodi:docname="translate-path.svg"
   id="svg859"
   version="1.1"
   viewBox="0 0 256 256"
   height="967.55908"
   width="967.55908">
  <defs
     id="defs853" />
  <sodipodi:namedview
     inkscape:window-maximized="0"
     inkscape:window-y="27"
     inkscape:window-x="167"
     inkscape:window-height="1023"
     inkscape:window-width="1439"
     units="px"
     showgrid="false"
     inkscape:document-rotation="0"
     inkscape:current-layer="layer1"
     inkscape:document-units="mm"
     inkscape:cy="660.97322"
     inkscape:cx="709.31124"
     inkscape:zoom="0.64903721"
     inkscape:pageshadow="2"
     inkscape:pageopacity="0.0"
     borderopacity="1.0"
     bordercolor="#666666"
     pagecolor="#ffffff"
     id="base" />
  <metadata
     id="metadata856">
    <rdf:RDF>
      <cc:Work
         rdf:about="">
        <dc:format>image/svg+xml</dc:format>
        <dc:type
           rdf:resource="http://purl.org/dc/dcmitype/StillImage" />
        <dc:title></dc:title>
      </cc:Work>
    </rdf:RDF>
  </metadata>
  <g
     id="layer1"
     inkscape:groupmode="layer"
     inkscape:label="Layer 1">
    <path
       sodipodi:nodetypes="cccccccccccsccssscsccccsccccccccccsccccccccccccccccccccccccscccc"
       transform="scale(0.26458333)"
       d="m 341.2793,57.0625 c -16.69909,-6.1e-5 -30.23639,13.53724 -30.23633,30.236328 -6e-5,16.699092 13.53724,30.236392 30.23633,30.236332 h 120.94531 c 16.69909,6e-5 30.23639,-13.53724 30.23633,-30.236332 C 492.461,70.59974 478.9237,57.062439 462.22461,57.0625 Z m 241.89062,0 c -16.69909,-6.1e-5 -30.23639,13.53724 -30.23633,30.236328 -6e-5,16.699092 13.53724,30.236392 30.23633,30.236332 h 120.94336 c 16.69909,6e-5 30.23639,-13.53724 30.23633,-30.236332 6e-5,-16.699088 -13.53724,-30.236389 -30.23633,-30.236328 z m 241.88867,0 c -16.69908,-5.5e-5 -30.23638,13.537244 -30.23632,30.236328 -6e-5,16.699082 13.53723,30.236392 30.23632,30.236332 h 18.33789 v 42.12695 c -6e-5,16.69909 13.53724,30.23639 30.23633,30.23633 16.69833,-0.001 30.23444,-13.538 30.23438,-30.23633 V 87.298828 L 873.63281,57.0625 Z M 341.2793,130.41602 c -16.69909,-6e-5 -30.23639,13.53723 -30.23633,30.23632 v 34.02344 H 179.23242 l -30.23633,30.23633 V 757.26367 L 179.23242,787.5 h 532.35156 l 30.23633,-30.23633 V 646.98438 c 10.56967,-4.99815 17.31049,-15.64214 17.31055,-27.33399 -7e-5,-11.69185 -6.74088,-22.33584 -17.31055,-27.33398 V 224.91211 L 711.58398,194.67578 H 371.51562 v -34.02344 c 6e-5,-16.69908 -13.53724,-30.23638 -30.23632,-30.23632 z m 532.35351,119.95507 c -16.69909,-6e-5 -30.23639,13.53724 -30.23633,30.23633 v 120.94531 c -6e-5,16.69909 13.53724,30.23639 30.23633,30.23633 16.69833,-0.001 30.23444,-13.538 30.23438,-30.23633 V 280.60742 c 6e-5,-16.69833 -13.53605,-30.23531 -30.23438,-30.23633 z m -664.16406,4.77735 h 101.57422 60.47265 309.83204 c 0,157.29297 0,314.58593 0,471.8789 H 209.46875 Z m 664.16406,237.11328 c -16.69909,-6e-5 -30.23639,13.53724 -30.23633,30.23633 v 67.60937 c -13.89006,3.02952 -23.79355,15.32637 -23.79296,29.54297 -6e-5,16.69909 13.53723,30.23639 30.23632,30.23633 h 23.79297 l 30.23438,-30.23633 v -97.15234 c 6e-5,-16.69833 -13.53605,-30.23531 -30.23438,-30.23633 z"
       style="color:#000000;font-style:normal;font-variant:normal;font-weight:normal;font-stretch:normal;font-size:medium;line-height:normal;font-family:sans-serif;font-variant-ligatures:normal;font-variant-position:normal;font-variant-caps:normal;font-variant-numeric:normal;font-variant-alternates:normal;font-variant-east-asian:normal;font-feature-settings:normal;font-variation-settings:normal;text-indent:0;text-align:start;text-decoration:none;text-decoration-line:none;text-decoration-style:solid;text-decoration-color:#000000;letter-spacing:normal;word-spacing:normal;text-transform:none;writing-mode:lr-tb;direction:ltr;text-orientation:mixed;dominant-baseline:auto;baseline-shift:baseline;text-anchor:start;white-space:normal;shape-padding:0;shape-margin:0;inline-size:0;clip-rule:nonzero;display:inline;overflow:visible;visibility:visible;opacity:1;isolation:auto;mix-blend-mode:normal;color-interpolation:sRGB;color-interpolation-filters:linearRGB;solid-color:#000000;solid-opacity:1;vector-effect:none;fill:#000000;fill-opacity:1;fill-rule:nonzero;stroke:none;stroke-width:60.4724;stroke-linecap:square;stroke-linejoin:bevel;stroke-miterlimit:4;stroke-dasharray:none;stroke-dashoffset:0;stroke-opacity:1;color-rendering:auto;image-rendering:auto;shape-rendering:auto;text-rendering:auto;enable-background:accumulate;stop-color:#000000;stop-opacity:1"
       id="path1503" />
  </g>
</svg>
